<svg width="96" height="96" viewBox="0 0 96 96" fill="none" xmlns="http://www.w3.org/2000/svg">
  <rect width="96" height="96" rx="28" fill="#0B2119"/>
  <circle cx="48" cy="48" r="36" stroke="#4EAA6C" stroke-width="1.5" stroke-dasharray="2 7" opacity=".7"/>
  <path d="M48 79C47 67 48 56 50 45" stroke="#C68A50" stroke-width="6" stroke-linecap="round"/>
  <path d="M49 47C35 44 25 33 27 17C42 16 54 23 57 35C58 41 55 45 49 47Z" fill="#4EAA6C"/>
  <path d="M49 46C57 41 66 31 68 18C81 26 80 40 72 48C65 55 56 54 49 46Z" fill="#2E8B63"/>
  <path d="M49 46C41 37 35 28 28 18M49 46C57 38 63 29 68 19" stroke="#C5E9A4" stroke-width="1.5" stroke-linecap="round"/>
</svg>
